<?xml version="1.0" encoding="UTF-8" standalone="no"?>
<!-- Created with Inkscape (http://www.inkscape.org/) -->

<svg
   xmlns:dc="http://purl.org/dc/elements/1.1/"
   xmlns:cc="http://creativecommons.org/ns#"
   xmlns:rdf="http://www.w3.org/1999/02/22-rdf-syntax-ns#"
   xmlns:svg="http://www.w3.org/2000/svg"
   xmlns="http://www.w3.org/2000/svg"
   version="1.1"
   width="293"
   height="232"
   viewBox="0 0 293 232"
   id="Layer_1"
   xml:space="preserve"><metadata
   id="metadata197"><rdf:RDF><cc:Work
       rdf:about=""><dc:format>image/svg+xml</dc:format><dc:type
         rdf:resource="http://purl.org/dc/dcmitype/StillImage" /><dc:title></dc:title></cc:Work></rdf:RDF></metadata><defs
   id="defs195" />
<path
   d="m 247.5,11.5 c 1,0 2,0 3,0 1.955,7.788 -7.259,12.62 -9,20 -2.862,1.138 -4.862,3.138 -6,6 -0.622,2.711 -4.178,2.489 -4,6 -5.481,1.852 -6.355,8.312 -10,12 0,0.667 0,1.333 0,2 -5.715,1.625 -3.068,9.803 -12,10 -0.333,0 -0.667,0 -1,0 -0.147,-2.186 -2.52,-2.147 -5,-2 -1.32,-4.653 3.32,-3.347 2,-8 5.1,-3.9 10.378,-7.622 13,-14 1.61,-2.056 5.403,-1.93 5,-6 5.26,-4.074 10.254,-8.413 14,-14 0,-0.333 0,-0.667 0,-1 1.654,-1.346 3.443,-2.556 4,-5 0.667,0 1.333,0 2,0 2.946,-0.387 2.293,-4.373 4,-6 z"
   id="path5"
   style="fill:#fff002;fill-rule:evenodd" /><path
   d="m 123.5,31.5 c -0.344,-8.883 7.245,-3.861 12,0 1.817,3.516 4.484,6.183 8,8 -0.368,1.701 0.78,1.887 2,2 3.828,5.505 8.495,10.172 14,14 0,0.667 0,1.333 0,2 0.435,2.232 1.768,3.565 4,4 2.822,-0.155 2.507,2.827 4,4 0,1.333 0,2.667 0,4 -1.333,0 -2.667,0 -4,0 -0.435,-2.232 -1.768,-3.565 -4,-4 -0.667,0 -1.333,0 -2,0 -4.338,-0.996 -3.452,-7.214 -8,-8 -3.044,0.377 -1.698,-3.635 -4,-4 -3.52,-6.48 -9.999,-10.001 -16,-14 -1.173,-1.494 -4.155,-1.178 -4,-4 -0.228,-1.772 1.008,-5.008 -2,-4 z"
   id="path7"
   style="fill:#fff002;fill-rule:evenodd" /><path
   d="m 125.5,35.5 c -0.667,0 -1.333,0 -2,0 0,-1.333 0,-2.667 0,-4 3.008,-1.008 1.772,2.228 2,4 z"
   id="path9"
   style="fill:#f8f364;fill-rule:evenodd" /><path
   d="m 53.5,35.5 c 0.745,-2.255 5.609,-0.391 8,-1 -0.745,2.255 -5.609,0.391 -8,1 z"
   id="path11"
   style="fill:#555f73;fill-rule:evenodd" /><path
   d="m 111.5,36.5 c 2.667,0 5.333,0 8,0 -0.444,1.65 -7.556,1.65 -8,0 z"
   id="path13"
   style="fill:#555f73;fill-rule:evenodd" /><path
   d="m 187.5,43.5 c 0.443,-0.89 0.878,-1.789 2,-2 0,4.333 0,8.667 0,13 -2.933,-1.4 0.933,-9.6 -2,-11 z"
   id="path15"
   style="fill:#555f73;fill-rule:evenodd" /><path
   d="m 167.5,65.5 c 0.667,0 1.333,0 2,0 -0.228,1.772 1.008,5.008 -2,4 0,-1.333 0,-2.667 0,-4 z"
   id="path17"
   style="fill:#f8f364;fill-rule:evenodd" /><path
   d="m 203.5,65.5 c 2.48,-0.147 4.853,-0.186 5,2 -1.89,-0.443 -6.026,1.36 -5,-2 z"
   id="path19"
   style="fill:#f8f364;fill-rule:evenodd" /><path
   d="m 23.5,71.5 c 2.236,0.431 0.405,4.928 1,7 -2.236,-0.431 -0.405,-4.928 -1,-7 z"
   id="path21"
   style="fill:#555f73;fill-rule:evenodd" /><path
   d="m 185.5,73.5 c -0.648,-3.222 10.648,-3.222 10,0 -3.333,0 -6.667,0 -10,0 z"
   id="path23"
   style="fill:#f8f364;fill-rule:evenodd" /><path
   d="m 169.5,77.5 c 7.154,0.487 9.682,-3.652 16,-4 3.333,0 6.667,0 10,0 4.688,-0.688 4.489,3.51 10,2 2.489,4.177 5.823,7.51 10,10 -0.688,4.688 3.511,4.49 2,10 0,3.333 0,6.667 0,10 0,2 0,4 0,6 -4.194,-0.695 -0.683,1.913 -2,4 -1.003,1.588 -4.969,2.66 -6,4 -0.651,0.847 0.537,3.062 0,4 -1.33,2.322 -7.069,3.101 -6,6 -4.049,-1.382 -3.163,2.171 -6,2 -1.772,0.228 -5.008,-1.008 -4,2 -8.369,0.702 -14.837,-0.496 -21,-2 -2.219,-2.114 -3.816,-4.851 -7,-6 1.235,-3.235 -3.235,-0.765 -2,-4 -0.435,-2.232 -1.768,-3.565 -4,-4 -1.286,-7.38 -5.399,-11.934 -4,-22 3.008,1.008 1.772,-2.228 2,-4 0,-0.667 0,-1.333 0,-2 4.841,-3.159 8.841,-7.159 12,-12 z"
   id="path25"
   style="fill:#fff002;fill-rule:evenodd" /><path
   d="m 152.5,87.5 c 0,2.333 0,4.667 0,7 -1.646,-0.136 -1.646,-6.864 0,-7 z"
   id="path27"
   style="fill:#555f73;fill-rule:evenodd" /><path
   d="m 255.5,95.5 c 7.851,-1.483 14.506,-4.161 22,-6 1.333,0 2.667,0 4,0 1.382,4.048 -2.171,3.163 -2,6 -0.667,0 -1.333,0 -2,0 -1.772,0.228 -5.008,-1.008 -4,2 -0.667,0 -1.333,0 -2,0 -1.772,0.228 -5.008,-1.008 -4,2 -0.667,0 -1.333,0 -2,0 -1.772,0.228 -5.008,-1.008 -4,2 -4.644,0.69 -8.284,2.382 -12,4 -2.48,-0.147 -4.853,-0.186 -5,2 -4.576,0.423 -7.514,2.486 -11,4 -2.667,0 -5.333,0 -8,0 0,-1.333 0,-2.667 0,-4 2.041,-1.959 4.04,-3.959 6,-6 2,0 4,0 6,0 2.062,-0.605 6.947,1.614 6,-2 4.653,1.32 3.347,-3.32 8,-2 1.772,-0.228 5.008,1.008 4,-2 z"
   id="path29"
   style="fill:#fff002;fill-rule:evenodd" /><path
   d="m 157.5,91.5 c -0.228,1.772 1.008,5.008 -2,4 0,-1.333 0,-2.667 0,-4 0.667,0 1.333,0 2,0 z"
   id="path31"
   style="fill:#f8f364;fill-rule:evenodd" /><path
   d="m 217.5,95.5 c 3.222,-0.648 3.222,10.648 0,10 0,-3.333 0,-6.667 0,-10 z"
   id="path33"
   style="fill:#f8f364;fill-rule:evenodd" /><path
   d="m 251.5,97.5 c -1.008,-3.008 2.228,-1.772 4,-2 1.008,3.008 -2.228,1.772 -4,2 z"
   id="path35"
   style="fill:#f8f364;fill-rule:evenodd" /><path
   d="m 277.5,95.5 c 1.008,3.008 -2.228,1.772 -4,2 -1.008,-3.008 2.228,-1.772 4,-2 z"
   id="path37"
   style="fill:#f8f364;fill-rule:evenodd" /><path
   d="m 38.5,97.5 c 2.27,1.064 0.381,6.286 1,9 -2.27,-1.064 -0.381,-6.286 -1,-9 z"
   id="path39"
   style="fill:#555f73;fill-rule:evenodd" /><path
   d="m 271.5,97.5 c 1.008,3.008 -2.228,1.772 -4,2 -1.008,-3.008 2.228,-1.772 4,-2 z"
   id="path41"
   style="fill:#f8f364;fill-rule:evenodd" /><path
   d="m 26.5,105.5 c -1.646,-0.136 -1.646,-6.864 0,-7 0,2.333 0,4.667 0,7 z"
   id="path43"
   style="fill:#555f73;fill-rule:evenodd" /><path
   d="m 237.5,101.5 c -0.947,-3.614 3.938,-1.395 6,-2 0.947,3.614 -3.938,1.395 -6,2 z"
   id="path45"
   style="fill:#f8f364;fill-rule:evenodd" /><path
   d="m 265.5,99.5 c 1.008,3.008 -2.228,1.772 -4,2 -1.008,-3.008 2.228,-1.772 4,-2 z"
   id="path47"
   style="fill:#f8f364;fill-rule:evenodd" /><path
   d="m 143.5,107.5 c -1.008,-3.008 2.228,-1.772 4,-2 1.008,3.008 -2.228,1.772 -4,2 z"
   id="path49"
   style="fill:#f8f364;fill-rule:evenodd" /><path
   d="m 147.5,105.5 c 0.836,1.212 3.898,1.778 4,2 4.092,8.967 -9.55,7.152 -14,10 -2.695,1.972 -7.375,1.959 -8,6 -0.667,0 -1.333,0 -2,0 -1.772,0.228 -5.008,-1.008 -4,2 -4.048,-1.382 -3.163,2.171 -6,2 -0.387,-2.946 -4.373,-2.294 -6,-4 -1.01,-4.343 2.209,-4.457 4,-6 2.062,-0.605 6.947,1.613 6,-2 0.667,0 1.333,0 2,0 2.232,-0.435 3.565,-1.768 4,-4 6.503,-0.164 7.707,-5.626 16,-4 1.772,-0.228 5.008,1.008 4,-2 z"
   id="path51"
   style="fill:#fff002;fill-rule:evenodd" /><path
   d="m 249.5,105.5 c -0.85,1.483 -2.517,2.15 -5,2 0.147,-2.186 2.52,-2.147 5,-2 z"
   id="path53"
   style="fill:#f8f364;fill-rule:evenodd" /><path
   d="m 225.5,111.5 c 2.667,0 5.333,0 8,0 0.61,3.944 -5.49,1.176 -8,2 0,-0.667 0,-1.333 0,-2 z"
   id="path55"
   style="fill:#f8f364;fill-rule:evenodd" /><path
   d="m 115.5,117.5 c -0.947,-3.614 3.938,-1.395 6,-2 0.947,3.613 -3.938,1.395 -6,2 z"
   id="path57"
   style="fill:#f8f364;fill-rule:evenodd" /><path
   d="m 37.5,123.5 c 1.91,-1.96 0.133,7.56 -1,9 0,-0.333 0,-0.667 0,-1 0.119,-2.881 -0.546,-6.546 1,-8 z"
   id="path59"
   style="fill:#00327b;fill-rule:evenodd" /><path
   d="m 36.5,123.5 c 0.333,0 0.667,0 1,0 -1.546,1.454 -0.881,5.119 -1,8 -1.65,-0.444 -1.65,-7.556 0,-8 z"
   id="path61"
   style="fill:#555f73;fill-rule:evenodd" /><path
   d="m 127.5,123.5 c 1.008,3.008 -2.228,1.772 -4,2 -1.008,-3.008 2.228,-1.772 4,-2 z"
   id="path63"
   style="fill:#f8f364;fill-rule:evenodd" /><path
   d="m 197.5,131.5 c -0.241,1.759 -1.721,2.279 -4,2 -1.008,-3.008 2.228,-1.772 4,-2 z"
   id="path65"
   style="fill:#f8f364;fill-rule:evenodd" /><path
   d="m 213.5,135.5 c 1.759,-5.629 6.404,1.022 10,0 1.138,2.862 3.138,4.862 6,6 3.82,0.18 2.721,5.279 8,4 1.138,2.862 3.138,4.862 6,6 3.82,0.18 2.721,5.279 8,4 0.435,2.232 1.768,3.565 4,4 3.691,0.976 4.028,5.305 6,8 -5.298,4.243 -12.702,-2.075 -18,-4 -0.081,-3.919 -3.419,-4.581 -6,-6 -3.081,0.748 -1.219,-3.447 -5,-2 -0.741,-4.926 -6.256,-5.077 -9,-8 -0.333,0 -0.667,0 -1,0 -0.51,-3.157 -4.566,-2.767 -7,-4 -1.701,0.367 -1.887,-0.78 -2,-2 0,-2 0,-4 0,-6 z"
   id="path67"
   style="fill:#fff002;fill-rule:evenodd" /><path
   d="m 213.5,135.5 c 0,2 0,4 0,6 -3.613,0.947 -1.395,-3.938 -2,-6 0.667,0 1.333,0 2,0 z"
   id="path69"
   style="fill:#f8f364;fill-rule:evenodd" /><path
   d="m 181.5,153.5 c 0,-1.333 0,-2.667 0,-4 4.688,0.688 4.489,-3.511 10,-2 0,1.333 0,2.667 0,4 -1.316,2.351 -2.787,4.546 -2,9 -2.187,0.147 -2.147,2.52 -2,5 -1.689,2.311 -2.591,5.409 -2,10 -1.746,0.92 -2.207,3.126 -2,6 0.367,1.701 -0.78,1.887 -2,2 -2.624,-0.709 -4.496,-2.171 -4,-6 -0.639,-6.591 2.58,-4.539 2,-12 4.269,-0.398 0.953,-8.38 2,-12 z"
   id="path71"
   style="fill:#fff002;fill-rule:evenodd" /><path
   d="m 191.5,147.5 c 1.949,-0.493 3.599,4.962 0,4 0,-1.333 0,-2.667 0,-4 z"
   id="path73"
   style="fill:#f8f364;fill-rule:evenodd" /><path
   d="m 29.5,158.5 c 0.595,-2.071 -1.236,-6.569 1,-7 -0.595,2.071 1.236,6.569 -1,7 z"
   id="path75"
   style="fill:#555f73;fill-rule:evenodd" /><path
   d="m 193.5,158.5 c 0.595,-2.071 -1.236,-6.569 1,-7 -0.595,2.071 1.236,6.569 -1,7 z"
   id="path77"
   style="fill:#555f73;fill-rule:evenodd" /><path
   d="m 179.5,165.5 c 1.047,-3.62 -2.269,-11.602 2,-12 -1.047,3.62 2.269,11.602 -2,12 z"
   id="path79"
   style="fill:#f8f364;fill-rule:evenodd" /><path
   d="m 189.5,160.5 c -0.443,1.89 1.36,6.026 -2,5 -0.147,-2.48 -0.187,-4.853 2,-5 z"
   id="path81"
   style="fill:#f8f364;fill-rule:evenodd" /><path
   d="m 191.5,174.5 c 0.595,-2.071 -1.236,-6.569 1,-7 -0.595,2.071 1.236,6.569 -1,7 z"
   id="path83"
   style="fill:#555f73;fill-rule:evenodd" /><path
   d="m 185.5,175.5 c -0.605,2.062 1.613,6.947 -2,6 -0.207,-2.874 0.254,-5.08 2,-6 z"
   id="path85"
   style="fill:#f8f364;fill-rule:evenodd" /><path
   d="m 188.5,179.5 c 0.168,-1.165 1.581,-1.086 3,-1 0,2.667 0,5.333 0,8 -2.236,-0.431 -0.405,-4.929 -1,-7 -0.667,0 -1.333,0 -2,0 z"
   id="path87"
   style="fill:#555f73;fill-rule:evenodd" /><path
   d="m 191.5,187.5 c 0,2.667 0,5.333 0,8 -1.65,-0.444 -1.65,-7.556 0,-8 z"
   id="path89"
   style="fill:#555f73;fill-rule:evenodd" /><path
   d="m 55.5,208.5 c 0.431,-2.236 4.928,-0.405 7,-1 -0.431,2.236 -4.928,0.405 -7,1 z"
   id="path91"
   style="fill:#555f73;fill-rule:evenodd" /><path
   d="m 98.5,209.5 c 0.759,-1.653 8.241,-1.653 9,0 -3,0 -6,0 -9,0 z"
   id="path93"
   style="fill:#555f73;fill-rule:evenodd" /><path
   d="m 122.5,217.5 c -2.391,-0.609 -7.255,1.255 -8,-1 2.391,0.609 7.255,-1.255 8,1 z"
   id="path95"
   style="fill:#555f73;fill-rule:evenodd" /><path
   d="m 245.5,11.5 c 0.667,0 1.333,0 2,0 -1.707,1.627 -1.054,5.613 -4,6 -1.382,-4.048 2.171,-3.163 2,-6 z"
   id="path97"
   style="fill:#f8f364;fill-rule:evenodd" /><path
   d="m 241.5,17.5 c -0.557,2.444 -2.346,3.654 -4,5 -0.2,-3.2 1.676,-4.324 4,-5 z"
   id="path99"
   style="fill:#f8f364;fill-rule:evenodd" /><path
   d="m 223.5,37.5 c 3.994,-5.339 8.376,-10.291 14,-14 -3.746,5.587 -8.74,9.926 -14,14 z"
   id="path101"
   style="fill:#f8f364;fill-rule:evenodd" /><path
   d="m 218.5,43.5 c -2.622,6.378 -7.9,10.1 -13,14 3.313,-5.687 8.848,-9.152 13,-14 z"
   id="path103"
   style="fill:#f8f364;fill-rule:evenodd" /><path
   d="m 221.5,57.5 c -1.107,3.552 -8.983,16.198 -12,10 8.932,-0.197 6.285,-8.375 12,-10 z"
   id="path105"
   style="fill:#f8f364;fill-rule:evenodd" /><path
   d="m 231.5,43.5 c -3.393,3.941 -4.695,9.971 -10,12 3.645,-3.688 4.519,-10.148 10,-12 z"
   id="path107"
   style="fill:#f8f364;fill-rule:evenodd" /><path
   d="m 241.5,31.5 c -1.346,2.654 -3.346,4.654 -6,6 1.138,-2.862 3.138,-4.862 6,-6 z"
   id="path109"
   style="fill:#f8f364;fill-rule:evenodd" /><path
   d="m 279.5,95.5 c -0.171,-2.837 3.382,-1.952 2,-6 -1.333,0 -2.667,0 -4,0 -0.483,-4.12 4.88,-1.423 5,0 0,1.333 0,2.667 0,4 -1.017,0.65 -1.034,2.299 -3,2 z"
   id="path111"
   style="fill:#f8f364;fill-rule:evenodd" /><path
   d="m 231.5,101.5 c -1.96,2.041 -3.959,4.041 -6,6 -0.32,-4.321 1.68,-6.321 6,-6 z"
   id="path113"
   style="fill:#f8f364;fill-rule:evenodd" /><path
   d="m 198.5,179.5 c 0.139,4.139 -0.275,7.725 -2,10 0.509,-3.491 0.45,-7.55 2,-10 z"
   id="path115"
   style="fill:#555f73;fill-rule:evenodd" /><path
   d="m 217.5,111.5 c 2.598,4.578 -4.803,5.562 -6,8 -0.455,0.926 0.644,3.223 0,4 -2.017,2.438 -5.658,4.137 -8,6 -1.069,-2.899 4.67,-3.678 6,-6 0.537,-0.938 -0.651,-3.153 0,-4 1.031,-1.34 4.997,-2.412 6,-4 1.317,-2.087 -2.194,-4.695 2,-4 z"
   id="path117"
   style="fill:#f8f364;fill-rule:evenodd" /><path
   d="m 205.5,75.5 c 4.177,2.49 7.511,5.823 10,10 -4.177,-2.49 -7.511,-5.823 -10,-10 z"
   id="path119"
   style="fill:#f8f364;fill-rule:evenodd" /><path
   d="m 169.5,77.5 c -3.159,4.841 -7.159,8.841 -12,12 3.159,-4.841 7.159,-8.841 12,-12 z"
   id="path121"
   style="fill:#f8f364;fill-rule:evenodd" /><path
   d="m 137.5,117.5 c -1.154,3.513 -5.483,3.851 -8,6 0.625,-4.041 5.305,-4.028 8,-6 z"
   id="path123"
   style="fill:#f8f364;fill-rule:evenodd" /><path
   d="m 127.5,111.5 c -0.435,2.232 -1.768,3.565 -4,4 0.435,-2.232 1.768,-3.565 4,-4 z"
   id="path125"
   style="fill:#f8f364;fill-rule:evenodd" /><path
   d="m 111.5,123.5 c 1.627,1.706 5.613,1.054 6,4 -3.83,0.496 -5.291,-1.376 -6,-4 z"
   id="path127"
   style="fill:#f8f364;fill-rule:evenodd" /><path
   d="m 129.5,39.5 c 6.001,3.999 12.48,7.52 16,14 -5.06,-4.94 -12.121,-7.879 -16,-14 z"
   id="path131"
   style="fill:#f8f364;fill-rule:evenodd" /><path
   d="m 149.5,57.5 c 4.548,0.786 3.662,7.004 8,8 -6.19,0.857 -5.677,-4.99 -8,-8 z"
   id="path133"
   style="fill:#f8f364;fill-rule:evenodd" /><path
   d="m 159.5,65.5 c 2.232,0.435 3.565,1.768 4,4 -2.232,-0.435 -3.565,-1.768 -4,-4 z"
   id="path135"
   style="fill:#f8f364;fill-rule:evenodd" /><path
   d="m 159.5,57.5 c 2.232,0.435 3.565,1.768 4,4 -2.232,-0.435 -3.565,-1.768 -4,-4 z"
   id="path137"
   style="fill:#f8f364;fill-rule:evenodd" /><path
   d="m 145.5,41.5 c 5.505,3.828 10.172,8.495 14,14 -5.505,-3.828 -10.172,-8.495 -14,-14 z"
   id="path139"
   style="fill:#f8f364;fill-rule:evenodd" /><path
   d="m 135.5,31.5 c 3.516,1.817 6.183,4.484 8,8 -3.516,-1.817 -6.183,-4.484 -8,-8 z"
   id="path141"
   style="fill:#f8f364;fill-rule:evenodd" /><path
   d="m 86.5,25.5 c 2.097,-2.354 7.903,0.04 10,1 -4.368,0.701 -5.632,-1.701 -10,-1 z"
   id="path143"
   style="fill:#555f73;fill-rule:evenodd" /><path
   d="m 31.5,54.5 c 0.534,-3.466 -1.485,-9.485 2,-10 -2.486,1.514 0.614,8.614 -2,10 z"
   id="path145"
   style="fill:#555f73;fill-rule:evenodd" /><path
   d="m 36.5,150.5 c 4.065,4.259 0.274,16.156 1,21 -0.17,-1.496 0.357,-3.69 -1,-4 -0.271,-7.087 1.728,-10.846 0,-17 z"
   id="path147"
   style="fill:#555f73;fill-rule:evenodd" /><path
   d="m 164.5,55.5 c 1.136,3.531 6.34,2.994 8,6 -3.654,-1.013 -7.327,-2.006 -8,-6 z"
   id="path149"
   style="fill:#dbdeca;fill-rule:evenodd" /><path
   d="m 110.5,42.5 c 3.075,-1.372 14.436,-2.463 16,1 -3.59,-2.077 -10.814,-0.519 -16,-1 z"
   id="path151"
   style="fill:#555f73;fill-rule:evenodd" /><path
   d="m 176.5,136.5 c 4.205,1.271 8.36,-2.609 9,1 -1.021,-1.993 -7.123,2.104 -9,-1 z"
   id="path153"
   style="fill:#555f73;fill-rule:evenodd" /><path
   d="m 165.5,125.5 c 3.184,1.149 4.781,3.886 7,6 -2.794,-1.54 -6.245,-2.421 -7,-6 z"
   id="path157"
   style="fill:#f8f364;fill-rule:evenodd" /><path
   d="m 159.5,117.5 c 2.232,0.435 3.565,1.768 4,4 -2.232,-0.435 -3.565,-1.768 -4,-4 z"
   id="path159"
   style="fill:#f8f364;fill-rule:evenodd" /><path
   d="m 222.5,147.5 c -1.326,-2.341 -6.877,-0.457 -7,-4 2.434,1.233 6.49,0.843 7,4 z"
   id="path161"
   style="fill:#f8f364;fill-rule:evenodd" /><path
   d="m 232.5,155.5 c -2.925,-2.741 -7.907,-3.427 -9,-8 2.744,2.923 8.259,3.074 9,8 z"
   id="path163"
   style="fill:#f8f364;fill-rule:evenodd" /><path
   d="m 243.5,163.5 c -2.215,-1.785 -4.688,-3.312 -6,-6 2.581,1.419 5.919,2.081 6,6 z"
   id="path165"
   style="fill:#f8f364;fill-rule:evenodd" /><path
   d="m 251.5,155.5 c 2.232,0.435 3.565,1.768 4,4 -2.232,-0.435 -3.565,-1.768 -4,-4 z"
   id="path167"
   style="fill:#f8f364;fill-rule:evenodd" /><path
   d="m 237.5,145.5 c 2.862,1.138 4.862,3.138 6,6 -2.862,-1.138 -4.862,-3.138 -6,-6 z"
   id="path169"
   style="fill:#f8f364;fill-rule:evenodd" /><path
   d="m 223.5,135.5 c 2.862,1.138 4.862,3.138 6,6 -2.862,-1.138 -4.862,-3.138 -6,-6 z"
   id="path171"
   style="fill:#f8f364;fill-rule:evenodd" /><path
   d="m 181.5,183.5 c 0,0.667 0,1.333 0,2 -2.393,-0.727 -9.265,-6.111 -4,-8 -0.496,3.829 1.376,5.291 4,6 z"
   id="path173"
   style="fill:#f8f364;fill-rule:evenodd" /><path
   d="m 22.5,44.500001 c 0.515,-10.178 3.086,-11.972 10,-14 6.927,-2.032 9.253,-0.576 14,-1 1.953,-0.175 4.018,-1.674 6,-2 3.223,-0.53 7.744,0.73 11,0 1.792,-0.402 2.584,-1.881 4,-2 7.331,-0.616 13.581,2.46 19,0 4.368,-0.701 5.632,1.701 10,1 5.878,1.362 36.332,-0.82 23,10 -2.667,0 -5.333,0 -8,0 -4.838,-3.347 -10.189,0.699 -15,0 -3.06,-0.444 -4.977,-2.723 -8,-3 -8.562,-0.784 -17.679,1.593 -27,1 -2.391,0.609 -7.255,-1.255 -8,1 -6.32,3.347 -20.158,-0.825 -20,9 -3.485,0.515 -1.466,6.534 -2,9.999999 -0.063,9.326 1.034,25.44 3,36 0,7.667 0,15.333 0,23 -0.413,4.413 0.271,7.729 2,10 -1.65,0.444 -1.65,7.556 0,8 0,0.333 0,0.667 0,1 0.441,6.57 1.159,10.189 0,18 1.728,6.154 -0.271,9.913 0,17 0,2.333 0,4.667 0,7 -2.796,7.853 0.945,19.247 -3,24 1.604,4.587 0.072,6.793 0,12 21.628,1.727 46.171,0.473 65,-1 3,0 6,0 9,0 11.515,-1.334 25.929,5.709 36,1 16.414,-4.072 51.938,6.146 48,-15 0,-2.667 0,-5.333 0,-8 0,-0.333 0,-0.667 0,-1 0,-2.667 0,-5.333 0,-8 0,-1.333 0,-2.667 0,-4 2.236,-0.431 0.405,-4.929 1,-7 0.042,-3.292 1.688,-4.979 1,-9 2.236,-0.431 0.405,-4.929 1,-7 1.412,-4.496 -4.986,-17.692 4,-19 3.309,19.823 0.491,30.396 0,47 -1.55,2.45 -1.491,6.509 -2,10 -2.189,9.058 3.225,14.318 1,20 -5.105,13.04 -43.345,2.783 -52,11 -1,0 -2,0 -3,0 -3.916,-2.902 -12.096,-1.869 -20,-3 -0.745,-2.255 -5.609,-0.391 -8,-1 -12.847,0.553 -31.195,-1.743 -41,-1 -9.354,0.709 -15.879,0.632 -24,1 -8.547,0.387 -19.915,2.334 -23,-4 -3.369,-6.917 1.475,-29.626 2,-34 0.903,-7.524 -0.543,-14.15 1,-20 2.236,-0.431 0.405,-4.929 1,-7 0.142,-18.41 -5.598,-31.268 -4,-46 0,-2.333 0,-4.667 0,-7 -0.386,-6.948 -1.274,-13.392 -2,-20 -0.595,-2.072 1.236,-6.569 -1,-7 -1.214,-1.786 -0.183,-5.817 -2,-7 0,-2.333 0,-4.667 0,-7 2.3,-2.367 0.358,-8.974999 1,-12.999999 z"
   id="path177"
   style="fill:#030305;fill-rule:evenodd" /><path
   d="m 189.5,41.5 c 0.505,-8.224 -11.443,-5.001 -19,-5 -2.052,0 -1.581,-1.625 -4,-2 -8.393,-1.303 -15.646,4.231 -22,-1 -11.605,-9.556 17.058,-6.535 27,-6 1.54,0.083 3.388,-1.069 5,-1 1.467,0.063 3.293,1.987 4,2 2.64,0.048 9.214,-2.979 14,-1 4.915,2.033 4.491,4.546 5,13 0.485,8.065 2.596,16.923 2,22 -0.902,7.685 -6.343,4.475 -15,6 0,-1 0,-2 0,-3 0.484,-4.183 1.922,-7.412 3,-11 0,-4.333 0,-8.667 0,-13 z"
   id="path179"
   style="fill:#030305;fill-rule:evenodd" /><path
   d="m 21.5,57.5 c 0,-4.333 0,-8.667 0,-13 0.333,0 0.667,0 1,0 -0.642,4.025 1.3,10.633 -1,13 z"
   id="path181"
   style="fill:#555f73;fill-rule:evenodd" /><path
   d="m 189.5,54.5 c -1.078,3.588 -2.516,6.817 -3,11 -6.19,3.965 -12.27,3.307 -14,-4 -1.66,-3.006 -6.864,-2.469 -8,-6 -3.272,-3.727 -4.52,-9.48 -6,-15 7.407,-0.633 24.243,-3.334 29,3 2.933,1.4 -0.933,9.6 2,11 z"
   id="path183"
   style="fill:#00327b;fill-rule:evenodd" /><path
   d="m 34.5,90.5 c 1.664,5.352 1.664,17.648 0,23 0,-7.667 0,-15.333 0,-23 z"
   id="path185"
   style="fill:#dbdeca;fill-rule:evenodd" /><path
   d="m 39.5,120.5 c -2.477,-1.583 -0.408,-6.996 0,-9 2.871,1.978 -0.347,6.241 0,9 z"
   id="path187"
   style="fill:#555f73;fill-rule:evenodd" /><path
   d="m 191.50001,195.5 c 3.938,21.146 -31.586,10.928 -48,15 -4.515,-0.461 -11.985,-2.438 -15,-3 -3.41,-0.636 -9.231,1.038 -13,0 -2.469,-0.681 -2.64,-2.802 -5,-3 -10.137,-0.852 -21.04301,2.814 -30.00001,2 -1.307,-0.119 -3.55,-2.106 -5,-2 -4.39,0.322 -8.076,4.167 -13,3 -2.072,0.595 -6.569,-1.236 -7,1 -5.738,-2.9 -11.177,1.954 -15,0 -3.36,-1.717 -1.569,-10.481 -7,-10 3.945,-4.753 0.204,-16.147 3,-24 2.886,2.237 2.442,10.34 3,17 0.973,11.608 0.109,12.311 14,13 4.088,0.203 10.403,2.022 12,-2 -4.404,-6.297 -11.544,-0.019 -17,-4 -6.79,-4.955 -3.721,-14.659 -4,-25 -0.322,-11.952 -3.727,-26.086 -3,-37 0.721,-10.83 4.588,-20.946 3,-29 -1.273,-2.553 -4.898,0.927 -5,-1 -0.619,-2.714 1.27,-7.936 -1,-9 1.75,-6.98 0.259,-14.81 1,-21 0.74,-6.176 4.746,-14.674 6,-22 0.429,-2.507 -0.659,-6.13699 0,-7.99999 3.273,-9.256 8.052,-4.964 16,-5 4.737,-0.021 10.027,-2.767 13,-3 10.626,-0.833 26.13601,4.356 36.00001,4 5.186,0.481 12.41,-1.077 16,1 6.08,-0.305 9,6.492 12,9.99999 2.276,2.662 6.282,3.909 8,6 0.968,1.179 0.204,3.828 1,5 2.321,3.416 15.714,5.992 16,10 0.145,2.021 -3.76,2.143 -6,4 -4.19,3.474 -4.029,5.909 -5,9 -1.646,0.136 -1.646,6.864 0,7 1.912,10.79 -8.739,5.84201 -14,7 -4.617,1.017 -18.987,7.76 -22,10 -4.622,3.436 -10.523,5.364 -10,11 0.408,4.394 7.769,9.195 13,9 1.201,-0.045 4.567,-3.341 9,-5 4.576,-1.713 10.994,-1.743 14,-3 3.289,-1.375 10.354,-8.745 13,-8 4.864,1.369 2.815,10.968 5,14 2.779,3.857 15.192,5.863 16,7 1.877,3.104 7.979,-0.993 9,1 3.935,-1.01 5.807,2.209 4,4 -3.039,0.627 -8.613,-1.28 -10,1 -4.5,0.284 -0.687,7.544 -3,17 -0.514,2.098 -2.625,4.851 -3,7 -0.975,5.58 -1.172,12.453 -1,15 0.379,5.631 6.828,9.385 12,6 2.607,-1.706 1.201,-3.651 4,-8 0.667,0 1.333,0 2,0 0.595,2.071 -1.236,6.569 1,7 0,0.333 0,0.667 0,1 -1.65,0.444 -1.65,7.556 0,8 z"
   id="path189"
   style="fill:#00327b;fill-rule:evenodd" /><path
   d="m 179.5,142.5 c 1.387,-2.28 6.961,-0.373 10,-1 -1.387,2.28 -6.961,0.373 -10,1 z"
   id="path191"
   style="fill:#dbdeca;fill-rule:evenodd" />
</svg>