<?xml version="1.0" encoding="UTF-8" standalone="no"?>
<svg
   xmlns:dc="http://purl.org/dc/elements/1.1/"
   xmlns:cc="http://creativecommons.org/ns#"
   xmlns:rdf="http://www.w3.org/1999/02/22-rdf-syntax-ns#"
   xmlns:svg="http://www.w3.org/2000/svg"
   xmlns="http://www.w3.org/2000/svg"
   xmlns:sodipodi="http://sodipodi.sourceforge.net/DTD/sodipodi-0.dtd"
   xmlns:inkscape="http://www.inkscape.org/namespaces/inkscape"
   version="1.1"
   id="svg885"
   width="481"
   height="600"
   viewBox="0 0 481 600"
   sodipodi:docname="decheterie.svg"
   inkscape:version="1.0.1 (0767f8302a, 2020-10-17)">
  <metadata
     id="metadata891">
    <rdf:RDF>
      <cc:Work
         rdf:about="">
        <dc:format>image/svg+xml</dc:format>
        <dc:type
           rdf:resource="http://purl.org/dc/dcmitype/StillImage" />
        <dc:title></dc:title>
      </cc:Work>
    </rdf:RDF>
  </metadata>
  <defs
     id="defs889">
    <clipPath
       clipPathUnits="userSpaceOnUse"
       id="clipPath917">
      <rect
         style="opacity:1;fill:#40ffff;fill-opacity:1;stroke:none"
         id="rect919"
         width="518.82513"
         height="495.22144"
         x="-5.8626008"
         y="-3.2556174" />
    </clipPath>
    <clipPath
       clipPathUnits="userSpaceOnUse"
       id="clipPath923">
      <rect
         style="opacity:1;fill:#0000ff;fill-opacity:1;stroke:none"
         id="rect925"
         width="559.25897"
         height="536.38226"
         x="-22.367548"
         y="-27.934429" />
    </clipPath>
    <clipPath
       clipPathUnits="userSpaceOnUse"
       id="clipPath947">
      <rect
         style="opacity:1;fill:#00ffff;fill-opacity:1;stroke:none"
         id="rect949"
         width="489.24948"
         height="500.31528"
         x="-3.0398426"
         y="-3.9881513" />
    </clipPath>
    <clipPath
       clipPathUnits="userSpaceOnUse"
       id="clipPath947-3">
      <rect
         style="opacity:1;fill:#00ffff;fill-opacity:1;stroke:none"
         id="rect949-6"
         width="489.24948"
         height="500.31528"
         x="-3.0398426"
         y="-3.9881513" />
    </clipPath>
    <clipPath
       clipPathUnits="userSpaceOnUse"
       id="clipPath1258">
      <rect
         style="opacity:1;fill:#5bffff;fill-opacity:1;stroke:none;stroke-width:302.362;stroke-miterlimit:4;stroke-dasharray:none"
         id="rect1260"
         width="434.79797"
         height="348.32523"
         x="20.85787"
         y="78.336578" />
    </clipPath>
  </defs>
  <sodipodi:namedview
     pagecolor="#ffffff"
     bordercolor="#666666"
     borderopacity="1"
     objecttolerance="10"
     gridtolerance="10"
     guidetolerance="10"
     inkscape:pageopacity="0"
     inkscape:pageshadow="2"
     inkscape:window-width="1853"
     inkscape:window-height="1016"
     id="namedview887"
     showgrid="false"
     inkscape:zoom="0.9699148"
     inkscape:cx="29.207326"
     inkscape:cy="256.01089"
     inkscape:window-x="67"
     inkscape:window-y="27"
     inkscape:window-maximized="1"
     inkscape:current-layer="g893" />
  <g
     inkscape:groupmode="layer"
     inkscape:label="Image"
     id="g893">
    <path
       style="opacity:1;fill:#5bffff;fill-opacity:1;stroke:none"
       d="m 239.97758,563.77062 c 3.43918,-21.5875 6.27455,-39.5875 6.30082,-40 0.0263,-0.4125 1.20852,-0.75 2.62723,-0.75 2.27981,0 2.51594,0.31945 2.03275,2.75 -1.70507,8.57679 -11.61221,72.52836 -11.61221,74.95797 0,1.84381 -0.54771,2.29203 -2.80082,2.29203 h -2.80082 z m -35.84314,30.11781 c -3.62309,-1.34013 -6.57845,-7.84273 -6.98451,-15.36781 l -0.32376,-6 3.75,-0.31037 c 3.67728,-0.30434 3.75,-0.24258 3.75,3.18491 0,9.76949 6.88844,13.06749 8.57016,4.10315 1.01212,-5.39504 -0.42054,-9.14009 -6.02333,-15.74532 -8.11426,-9.56605 -9.01697,-11.78783 -9.03301,-22.23237 -0.0162,-10.54928 1.38631,-14.65712 5.97187,-17.49116 3.95623,-2.44508 6.80955,-2.53822 10.52481,-0.34357 3.67437,2.17051 5.10375,5.42764 5.7422,13.08473 l 0.52112,6.25 h -3.46931 c -3.33057,0 -3.50601,-0.18609 -4.38691,-4.6532 -1.76084,-8.92933 -7.4176,-7.86626 -7.4176,1.39399 0,5.15958 1.65638,8.66786 6.02408,12.75921 7.74607,7.25598 10.74721,16.99024 8.86381,28.75 -1.05689,6.59914 -2.75116,10.08407 -5.63789,11.5965 -3.05381,1.59997 -7.65942,2.05045 -10.44173,1.02131 z m 71.69173,0.38378 c -1.1,-0.26681 -3.23288,-1.35992 -4.73974,-2.42914 -4.66827,-3.31244 -6.0569,-10.48617 -6.15992,-31.82245 -0.10273,-21.27795 1.12833,-29.0527 5.41288,-34.1849 2.382,-2.85325 3.39513,-3.3151 7.27219,-3.3151 2.99902,0 5.19616,0.62584 6.57366,1.87246 2.72567,2.4667 5.03191,8.93429 5.36929,15.05759 0.28811,5.22889 0.17901,5.31069 -6.22836,4.66995 -0.55,-0.055 -1.00663,-1.5625 -1.01474,-3.35 -0.0184,-4.06617 -2.01375,-8.13181 -4.19725,-8.55231 -0.9488,-0.18272 -2.43965,0.8672 -3.47488,2.44716 -1.60221,2.44528 -1.81313,5.15711 -1.81313,23.31117 0,11.29919 0.33855,21.75149 0.75232,23.22733 0.8227,2.93435 3.62005,4.30932 6.74768,3.31665 1.7917,-0.56866 2,-1.51303 2,-9.06739 0,-7.76594 -0.15812,-8.43261 -2,-8.43261 -1.73597,0 -2,-0.66667 -2,-5.0499 v -5.04991 l 5.75,0.29991 5.75,0.2999 0.27368,17.26575 c 0.27201,17.16032 0.2598,17.27087 -2,18.10489 -3.24754,1.19857 -9.92716,1.95011 -12.27368,1.38095 z m 172.04168,0.019 c -5.73258,-1.45616 -7.8185,-5.22529 -9.14286,-16.52056 l -0.67418,-5.75 h 4.13768 4.13768 v 4.30887 c 0,5.32675 1.78161,7.99991 5.02265,7.5361 1.71825,-0.24589 2.67135,-1.2582 3.31846,-3.52463 1.55097,-5.43205 -0.005,-9.80765 -5.88623,-16.55096 -8.01747,-9.193 -8.95488,-11.57653 -8.95488,-22.76941 0,-10.77668 1.53785,-14.93397 6.46727,-17.48307 8.63743,-4.46659 16.0105,2.54117 16.02715,15.23307 0.005,4.16443 -0.0626,4.25 -3.38088,4.25 -3.23765,0 -3.41557,-0.19414 -4.04901,-4.41823 -1.111,-7.40869 -5.92965,-8.7872 -7.69126,-2.20031 -1.41181,5.27898 0.14479,9.3423 6.21163,16.21471 7.84806,8.89015 9.26679,12.88609 8.73932,24.61488 -0.47547,10.57251 -2.12178,14.17968 -7.4965,16.42538 -3.40692,1.4235 -3.60542,1.44205 -6.78604,0.63413 z M 37.326169,558.02062 v -35 h 6.598871 c 8.791343,0 12.759585,1.93936 14.896588,7.28026 2.447864,6.11781 3.787798,20.58462 3.215786,34.71974 -0.603297,14.90822 -2.008206,21.03588 -5.738523,25.0292 -2.635592,2.82141 -3.182393,2.9708 -10.873932,2.9708 h -8.09879 z m 15.035758,22.25 c 1.971811,-3.99656 2.583406,-36.33596 0.789566,-41.75 -1.198663,-3.61772 -1.683711,-4.02966 -5.075324,-4.31037 l -3.75,-0.31036 v 24.56036 24.56037 h 3.339485 c 2.64749,0 3.620633,-0.56984 4.696273,-2.75 z m 16.964242,-22.25 v -35 h 10 10 v 5.5 5.5 h -6.538933 -6.538933 l 0.288933,8.75 0.288933,8.75 5.75,0.2999 5.75,0.29991 v 4.95009 4.9501 h -6 -6 v 10.5 10.5 h 6.5 6.5 v 5 5 h -10 -10 z m 26,-0.0995 v -35.0995 l 8.920751,0.3495 c 10.73976,0.42077 13.33495,2.1517 15.02229,10.01953 2.0396,9.51032 0.88921,17.00156 -3.32527,21.65383 -2.01736,2.22693 -2.02853,2.36676 -0.26778,3.35213 3.10789,1.73926 4.65001,7.17507 4.65001,16.39076 0,9.30202 -1.58601,14.32944 -5.35287,16.96786 -1.45196,1.01699 -4.77801,1.46539 -10.86964,1.46539 h -8.777491 z m 16.027541,23.56632 c 1.81097,-2.18209 2.41122,-10.60734 1.04962,-14.73301 -0.90896,-2.75418 -1.82538,-3.63345 -4.30352,-4.12908 -1.73175,-0.34635 -3.48706,-0.28661 -3.90069,0.13277 -0.5808,0.58888 -1.29626,15.45601 -0.939,19.5125 0.12365,1.404 6.81583,0.75643 8.09359,-0.78318 z m -0.005,-31.50868 c 1.44168,-2.6938 1.46469,-11.17949 0.0375,-13.84614 -0.83896,-1.56762 -2.08808,-2.112 -4.84612,-2.112 h -3.71582 l 0.2275,8.75 c 0.12512,4.8125 0.23807,8.8625 0.251,9 0.0129,0.1375 1.58267,0.25 3.48832,0.25 2.46503,0 3.78013,-0.58918 4.55758,-2.04186 z m 15.97746,8.04186 v -35 h 4 4 v 29.5 29.5 h 5.82887 5.82888 l 0.22251,5.5 0.22252,5.5 h -10.05139 -10.05139 z m 21,34.15455 c 0,-0.46499 1.14275,-8.45249 2.53945,-17.75 3.10431,-20.66467 7.46055,-50.44223 7.46055,-50.9974 0,-0.22393 2.24143,-0.40715 4.98095,-0.40715 4.35595,0 5.04142,0.28232 5.46292,2.25 0.51903,2.42303 8.04059,53.82694 9.14517,62.5 l 0.66862,5.25 h -4.01134 -4.01134 l -0.70281,-7.5 -0.70281,-7.5 h -5.80114 -5.80113 l -0.65142,4.75 c -1.3994,10.20407 -1.4225,10.25 -5.15513,10.25 -1.88129,0 -3.42054,-0.38045 -3.42054,-0.84545 z m 18.64002,-26.90455 c -0.27212,-0.9625 -1.04556,-6.7 -1.71875,-12.75 -1.11565,-10.02648 -2.69321,-17.45753 -2.85788,-13.46199 -0.0349,0.8459 -0.73479,6.9209 -1.5554,13.5 -0.82061,6.57909 -1.49561,12.52449 -1.5,13.21199 -0.005,0.79643 1.46789,1.25 4.0594,1.25 3.39551,0 3.98566,-0.28907 3.57263,-1.75 z m 16.35998,-7.25 v -35 h 3.5 3.5 v 35 35 h -3.5 -3.5 z m 114,0 v -35 h 7.56574 c 4.16116,0 8.4315,0.46334 9.48965,1.02964 3.17485,1.69913 5.12427,6.83229 5.68135,14.95998 0.58438,8.52582 -0.69895,14.10311 -4.10362,17.83424 -1.97104,2.16005 -1.99847,2.39217 -0.38909,3.29283 3.32252,1.85937 4.17313,5.31072 4.71597,19.13498 l 0.54,13.75167 -3.60451,-0.002 -3.60452,-0.002 -0.55323,-12.25 c -0.30428,-6.7375 -0.86938,-13.04138 -1.25579,-14.00863 -0.76564,-1.91655 -4.73305,-3.32225 -6.42511,-2.2765 -0.66068,0.40898 -1.05684,5.87969 -1.05684,14.59481 v 13.94098 h -3.5 -3.5 z m 13.4433,-6.22251 c 1.8972,-2.70864 2.15689,-14.7773 0.3567,-16.57749 -0.66,-0.66 -2.46,-1.2 -4,-1.2 h -2.8 v 9.33333 c 0,5.13334 0.3,9.63334 0.66667,10 1.37268,1.37269 4.27244,0.59169 5.77663,-1.55584 z m 13.5567,39.27981 c 0,-1.92534 8.54616,-60.02094 9.60704,-65.3073 0.51058,-2.54427 0.91322,-2.75 5.38206,-2.75 h 4.8302 l 1.08025,6.75 c 0.59413,3.7125 2.6649,17.775 4.60171,31.25 1.93681,13.475 3.78091,26.1875 4.098,28.25 l 0.57654,3.75 h -3.99312 -3.99312 l -0.84478,-7.25 -0.84478,-7.25 -5.66017,-0.29722 c -6.34533,-0.33321 -5.91127,-0.92131 -7.4155,10.04722 -0.6313,4.60333 -0.75598,4.75 -4.03787,4.75 -2.6865,0 -3.38646,-0.40155 -3.38646,-1.9427 z m 17.61253,-30.8073 c -0.9251,-9.40903 -2.86266,-23.3332 -3.19991,-22.99595 -0.4469,0.44689 -3.41262,23.8715 -3.41262,26.95441 0,2.54385 0.32281,2.79154 3.63809,2.79154 h 3.6381 z m 20.98644,30 c -0.84458,-4.14797 -8.59897,-63.01675 -8.59897,-65.28056 0,-1.58207 0.68467,-1.96944 3.48095,-1.96944 4.23962,0 3.71987,-2.03408 7.01276,27.44503 1.40966,12.61977 2.71533,23.09734 2.90149,23.2835 0.42899,0.42899 0.84306,-2.3857 4.26309,-28.97853 l 2.79721,-21.75 h 3.7913 c 3.413,0 3.74148,0.22451 3.29199,2.25 -0.45677,2.05824 -9.53879,66.08352 -9.53879,67.2453 0,0.27759 -1.98925,0.5047 -4.42054,0.5047 -4.02001,0 -4.47128,-0.24917 -4.98049,-2.75 z m 18.80938,0.066 c 0.62123,-2.93404 6.86568,-44.71536 8.82774,-59.06597 l 1.12796,-8.25 h 5.31797 c 4.00365,0 5.31798,0.36203 5.31798,1.46481 0,1.7976 8.75234,61.95581 9.571,65.78519 0.56432,2.63965 0.4274,2.75 -3.41209,2.75 -4.40032,0 -4.27623,0.22488 -5.65585,-10.25 l -0.62561,-4.75 h -5.80011 -5.80012 l -0.88861,7.25 -0.88861,7.25 -3.84394,0.31597 c -3.74042,0.30745 -3.82789,0.24012 -3.24771,-2.5 z m 18.59165,-24.51382 c 0,-3.72344 -3.46134,-26.80218 -4.01978,-26.80218 -0.3665,0 -1.21928,5.2875 -1.89507,11.75 -0.67579,6.4625 -1.47019,12.7625 -1.76533,14 -0.4902,2.05531 -0.18113,2.25 3.57177,2.25 2.5246,0 4.10841,-0.46176 4.10841,-1.19782 z m 18.7651,-1.98632 -0.2651,-29.18413 -4,-0.0889 -4,-0.0889 -0.2999,-5.727 -0.29991,-5.72699 h 12.54991 12.5499 v 5.86186 5.86187 l -4.25,-0.10537 -4.25,-0.10536 -0.2651,29.2435 -0.26511,29.2435 h -3.46979 -3.46979 l -0.26511,-29.18414 z M 75.102086,515.4632 c -0.306579,-0.30658 0.385171,-3.45658 1.537222,-7 2.024578,-6.22709 2.206862,-6.44258 5.449767,-6.44258 1.84532,0 3.173572,0.3375 2.95167,0.75 -2.451928,4.55796 -8.152624,13.25 -8.690046,13.25 -0.380158,0 -0.942034,-0.25084 -1.248613,-0.55742 z M 65.326169,481.02603 C 32.907036,472.95652 8.6442857,446.72383 2.8457823,413.47275 1.5286923,405.92 1.3261687,383.31134 1.3261687,243.83118 1.3261687,135.55822 1.6733388,80.55069 2.3872215,75.71217 5.3289897,55.773595 16.771019,34.669721 30.439693,23.971711 32.852255,22.08348 35.671065,19.772606 36.703715,18.836435 39.670228,16.14708 51.735621,10.102329 59.214211,7.5586964 72.922753,2.8961206 73.969404,2.8721036 247.32617,3.2421756 c 185.21001,0.3953756 168.50245,-0.393954 187.5,8.8582244 21.05963,10.256452 35.39408,26.557893 42.98906,48.888046 4.58677,13.485659 4.64402,15.988404 4.31301,188.532174 l -0.31271,163 -2.23092,8 c -4.38274,15.71637 -14.96701,32.92706 -25.89959,42.11437 -9.5305,8.00905 -17.61502,12.50681 -31.72463,17.64972 l -6.13422,2.23591 -171.5,0.18612 c -164.423946,0.17845 -171.809449,0.1091 -179.000001,-1.68071 z m 346.326501,-9.44086 c 13.90432,-2.66034 28.86093,-10.54651 38.79089,-20.45327 7.45586,-7.43844 14.48421,-19.40931 18.26608,-31.11128 2.09414,-6.47976 2.10169,-7.0169 2.42424,-172.5 0.24435,-125.36344 0.0312,-167.713593 -0.87061,-173.000003 -4.92498,-28.869311 -26.40684,-51.607851 -55.30006,-58.535104 -7.89875,-1.893753 -12.96904,-1.950884 -173.13704,-1.950884 -161.337352,0 -165.184467,0.04422 -173.310056,1.992208 C 41.299421,22.55162 20.783869,43.06333 14.347927,70.184882 12.310133,78.772301 12.294267,80.333311 12.559033,246.18489 l 0.267136,167.33573 2.364791,7 c 7.068785,20.92426 19.607514,35.74637 37.635209,44.48881 7.47835,3.62658 15.991866,6.32746 23,7.29664 1.65,0.22819 76.197911,0.48231 165.662031,0.56472 137.63777,0.12678 163.81622,-0.071 170.16447,-1.28562 z M 33.326169,392.5894 c 0,-8.38551 0.01588,-8.43783 2.65738,-8.75236 2.408365,-0.28677 4.231191,-3.40875 19.452425,-33.31642 l 16.795046,-33 17.797575,-6.36548 c 9.788665,-3.50102 17.958125,-6.51157 18.154355,-6.69012 0.19623,-0.17855 -8.491642,-10.5059 -19.306384,-22.94967 -10.814742,-12.44376 -19.873135,-23.1722 -20.129762,-23.84096 -0.442622,-1.15345 6.913864,-9.07178 52.401696,-56.40377 17.21957,-17.91769 22.07799,-22.18208 22.21636,-19.5 0.0602,1.16624 13.77676,15.76922 14.30486,15.22927 0.25781,-0.2636 4.14563,-12.40427 8.6396,-26.97927 4.49396,-14.575 8.69869,-27.01633 9.34384,-27.6474 0.96837,-0.94722 29.35154,-16.25289 53.94124,-29.08789 l 5.76823,-3.01082 7.69695,3.79908 c 4.23332,2.0895 7.98665,3.62004 8.34073,3.40121 0.35407,-0.21883 5.72497,-8.30484 11.93533,-17.968919 l 11.29156,-17.571043 3.08358,2.79289 c 1.69596,1.536089 3.31573,3.027039 3.59948,3.313223 0.28375,0.286184 7.37841,6.537255 15.76591,13.891269 8.3875,7.35402 15.24832,13.64487 15.24626,13.97967 -0.002,0.3348 -0.82343,1.95873 -1.82527,3.60873 -2.79989,4.61131 -10.17099,18.26783 -10.17099,18.84391 0,0.2817 2.40586,0.81277 5.34636,1.18016 2.94049,0.36739 5.75539,0.96227 6.25533,1.32196 1.12096,0.80648 2.01829,3.48525 7.92364,23.65397 9.05446,30.92397 14.63305,49.00584 15.30054,49.59357 3.1116,2.73978 20.25553,15.90643 20.71132,15.90643 0.32127,0 4.23596,-3.16087 8.6993,-7.02416 4.46335,-3.86329 8.40791,-6.67579 8.76569,-6.25 0.35777,0.42579 5.80102,6.62416 12.09609,13.77416 6.29508,7.15 13.23572,15.08304 15.42366,17.62899 2.18794,2.54594 8.59057,9.80673 14.22807,16.13509 5.6375,6.32836 10.25,11.88969 10.25,12.35851 0,0.46881 -6.37083,7.2346 -14.1574,15.03509 l -14.1574,14.1827 23.9074,38.79047 c 19.24516,31.22585 24.39493,38.90444 26.4074,39.3749 2.40817,0.56295 2.5,0.87661 2.5,8.53933 v 7.95492 l -208.25,0.25236 -208.250001,0.25236 z M 267.32617,368.49903 v -15.47841 h -41.5 -41.5 l -3.3e-4,15.75 -3.2e-4,15.75 41.50032,-0.27159 41.50033,-0.27158 z m -100,-7.97841 v -23.5 h 32.5 32.5 v -23.5 -23.5 h 58 58 v 23.5 23.5 h 17.5 17.5 v 23.5 23.5 h 21.10699 c 17.04102,0 21.00969,-0.25355 20.60191,-1.31621 -0.27779,-0.72392 -4.67218,-8.03642 -9.76531,-16.25 -5.09313,-8.21358 -10.47202,-16.95879 -11.95309,-19.43379 -1.48106,-2.475 -7.93482,-12.96954 -14.34167,-23.32119 -6.40686,-10.35166 -11.64231,-19.12666 -11.63433,-19.5 0.008,-0.37335 5.87103,-6.75381 13.02901,-14.17881 14.88433,-15.43958 14.44903,-13.25044 4.79703,-24.12418 -7.65522,-8.62421 -10.31751,-11.66409 -17.34054,-19.79999 -3.3,-3.82292 -6.26748,-6.97891 -6.59441,-7.0133 -0.32693,-0.0344 -3.04952,2.07497 -6.05021,4.68747 -3.00069,2.6125 -8.10405,7 -11.3408,9.75 -3.23675,2.75 -8.06668,6.9125 -10.73317,9.25 -2.66649,2.3375 -4.99066,4.25 -5.16482,4.25 -0.17416,0 -2.639,-2.67006 -5.47742,-5.93346 l -5.16077,-5.93346 7.95129,-6.75832 c 4.37321,-3.71707 7.74279,-7.09568 7.48796,-7.50801 -0.25484,-0.41233 -5.1632,-4.37785 -10.90747,-8.81226 -5.74428,-4.43442 -10.85401,-8.84825 -11.35497,-9.80853 -0.50096,-0.96028 -3.7141,-11.19596 -7.14032,-22.74596 -10.72746,-36.16295 -13.09574,-43.91419 -13.55891,-44.37735 -0.24725,-0.24726 -2.27878,-0.4885 -4.5145,-0.5361 l -4.06495,-0.0865 -7.55608,13.5 c -4.15585,7.425 -7.74191,13.70134 -7.96904,13.94743 -0.22712,0.24609 -1.70094,-0.3134 -3.27515,-1.24331 -1.57422,-0.92991 -4.70424,-2.67397 -6.95562,-3.87569 l -4.0934,-2.18494 3.61838,-6.57174 c 5.16568,-9.38197 12.03914,-21.66293 20.18879,-36.07175 l 7.07002,-12.5 -6.70222,-6.24065 c -3.68621,-3.43236 -7.00879,-6.13236 -7.3835,-6 -0.57872,0.20442 -11.51863,16.90416 -31.79304,48.53198 l -4.67397,7.29134 -6.42585,-4.22122 c -3.53422,-2.32167 -6.55279,-4.30471 -6.70795,-4.40676 -0.15515,-0.10205 2.92112,-5.23234 6.83615,-11.40064 3.91504,-6.1683 6.96698,-11.3429 6.7821,-11.49911 -1.20775,-1.02048 -4.9547,-2.55494 -6.23883,-2.55494 -0.8438,0 -8.86088,3.90192 -17.81575,8.67092 -8.95486,4.76901 -19.28716,10.24768 -22.96066,12.17483 -3.67349,1.92714 -6.88046,4.21273 -7.12658,5.07907 -0.24613,0.86635 -2.56953,8.32518 -5.16311,16.57518 -2.59358,8.25 -6.2488,20.02485 -8.12269,26.16634 -1.8739,6.14149 -3.67145,11.85524 -3.99455,12.69723 -0.37983,0.98982 1.65217,3.95959 5.74928,8.4026 3.48521,3.77944 10.26895,11.18825 15.07498,16.46402 l 8.73824,9.5923 -6.10151,5.28582 -6.1015,5.28583 -4.63732,-4.94707 c -7.52704,-8.02981 -40.56914,-44.60769 -41.3969,-45.82672 -0.48622,-0.71604 -3.37328,1.59919 -8,6.41543 -32.31117,33.63469 -43.239251,45.38734 -43.239251,46.5018 0,1.17528 7.729305,10.67414 19.500001,23.96435 2.475,2.79451 6.975,7.94903 10,11.4545 3.025,3.50546 5.95039,6.86182 6.50087,7.45857 0.55048,0.59675 4.32896,4.88767 8.39663,9.53537 l 7.39577,8.45038 -5.89663,5.31252 -5.89664,5.31251 -5.19905,-5.71157 -5.19905,-5.71158 -5.30095,1.76468 c -2.91552,0.97057 -11.13278,3.87248 -18.260565,6.44868 l -12.959613,4.68401 -4.856835,9.42624 c -11.959741,23.21169 -21.723938,42.69927 -21.723938,43.35707 0,0.39418 24.75,0.71669 55.000001,0.71669 h 55 z m -51.9459,-4.01861 c -3.54524,-1.91026 -6.8442,-3.87149 -7.33102,-4.35831 -1.00701,-1.00701 2.78528,-9.12308 4.26282,-9.12308 1.29333,0 13.87559,6.96688 14.54844,8.05556 0.62424,1.01005 -3.20953,8.95582 -4.30466,8.92173 -0.40133,-0.0125 -3.63033,-1.58565 -7.17558,-3.4959 z m 75.4459,-58.15095 c -4.4,-1.38962 -8.12696,-2.64691 -8.28214,-2.79398 -0.70516,-0.66834 2.31319,-9.53412 3.23954,-9.51548 1.43195,0.0288 17.74128,4.84436 18.30033,5.40341 0.91612,0.91613 -2.47277,9.08182 -3.8406,9.25411 -0.77942,0.0982 -5.01713,-0.95845 -9.41713,-2.34806 z m 92.70931,-60.61448 c -1.76512,-1.82115 -3.20931,-3.58273 -3.20931,-3.91462 0,-0.3319 2.68115,-2.92617 5.95811,-5.76505 l 5.95812,-5.1616 3.01257,3.31265 c 1.65691,1.82196 3.02576,3.69392 3.04189,4.1599 0.027,0.78119 -9.43258,9.8174 -10.90438,10.41632 -0.35623,0.14496 -2.09188,-1.22646 -3.857,-3.0476 z m -58.82345,-30.42433 c -4.1901,-6.45368 -7.7741,-12.19694 -7.96443,-12.7628 -0.19034,-0.56585 1.54947,-2.23904 3.86625,-3.71819 l 4.21231,-2.68937 7.75001,11.95429 c 4.2625,6.57485 7.75,12.33777 7.75,12.80647 0,0.46871 -1.79905,2.04275 -3.99789,3.49788 l -3.99789,2.64567 z m 142.39019,161.45837 -0.27605,-15.25 -41.75,-0.26097 -41.75,-0.26097 v 15.51097 15.51097 h 42.02605 42.02604 z m -34.94708,-47.5 0.32896,-15.25 h -42.07896 -42.07897 v 15.51097 15.51097 l 41.75,-0.26097 41.75,-0.26097 z"
       id="path897"
       clip-path="url(#clipPath1258)"
       transform="translate(-5.0834,3.7176674)" />
  </g>
</svg>
