<?xml version="1.0" encoding="UTF-8" standalone="no"?>
<svg
   xmlns:dc="http://purl.org/dc/elements/1.1/"
   xmlns:cc="http://creativecommons.org/ns#"
   xmlns:rdf="http://www.w3.org/1999/02/22-rdf-syntax-ns#"
   xmlns:svg="http://www.w3.org/2000/svg"
   xmlns="http://www.w3.org/2000/svg"
   xmlns:sodipodi="http://sodipodi.sourceforge.net/DTD/sodipodi-0.dtd"
   xmlns:inkscape="http://www.inkscape.org/namespaces/inkscape"
   aria-hidden="true"
   focusable="false"
   data-prefix="fas"
   data-icon="lightbulb"
   class="svg-inline--fa fa-lightbulb fa-w-11"
   role="img"
   viewBox="0 0 352 512"
   version="1.1"
   id="svg58"
   sodipodi:docname="lightbulb-solid.svg"
   inkscape:version="1.0.1 (0767f8302a, 2020-10-17)">
  <metadata
     id="metadata64">
    <rdf:RDF>
      <cc:Work
         rdf:about="">
        <dc:format>image/svg+xml</dc:format>
        <dc:type
           rdf:resource="http://purl.org/dc/dcmitype/StillImage" />
        <dc:title></dc:title>
      </cc:Work>
    </rdf:RDF>
  </metadata>
  <defs
     id="defs62" />
  <sodipodi:namedview
     pagecolor="#ffffff"
     bordercolor="#666666"
     borderopacity="1"
     objecttolerance="10"
     gridtolerance="10"
     guidetolerance="10"
     inkscape:pageopacity="0"
     inkscape:pageshadow="2"
     inkscape:window-width="1920"
     inkscape:window-height="1043"
     id="namedview60"
     showgrid="false"
     inkscape:zoom="1.6074219"
     inkscape:cx="55.620899"
     inkscape:cy="256"
     inkscape:window-x="1920"
     inkscape:window-y="0"
     inkscape:window-maximized="1"
     inkscape:current-layer="svg58" />
  <path
     fill="currentColor"
     d="m 93.37045,457.35024 c 0.01,6.29 1.87,12.45 5.36,17.69 l 17.09,25.69 a 31.99,31.99 0 0 0 26.64,14.28 h 61.71 a 31.99,31.99 0 0 0 26.64,-14.28 l 17.09,-25.69 a 31.989,31.989 0 0 0 5.36,-17.69 l 0.04,-38.35 h -159.98 z m -96.0600004,-278.35 c 0,44.37 16.4500004,84.85 43.5600004,115.78 16.52,18.85 42.36,58.23 52.21,91.45 0.04,0.26 0.07,0.52 0.11,0.78 h 160.24 c 0.04,-0.26 0.07,-0.51 0.11,-0.78 9.85,-33.22 35.69,-72.6 52.21,-91.45 27.11,-30.93 43.56,-71.41 43.56,-115.78 0,-97.390003 -79.09,-176.3000027 -176.55,-176.0000027 -102.01,0.31 -175.4500004,82.9699997 -175.4500004,176.0000027 z M 173.31045,99.000237 c -44.11,0 -80,35.890003 -80,80.000003 0,8.84 -7.16,16 -16,16 -8.84,0 -16,-7.16 -16,-16 0,-61.76 50.24,-112.000003 112,-112.000003 8.84,0 16,7.16 16,16 0,8.84 -7.16,16 -16,16 z"
     id="path56"
     style="fill:#d3d400;fill-opacity:1" />
</svg>
